<svg version="1.1" id="Layer_1" xmlns="http://www.w3.org/2000/svg" xmlns:xlink="http://www.w3.org/1999/xlink" x="0px" y="0px"
	 width="100%" viewBox="0 0 1080 1080" enable-background="new 0 0 1080 1080" xml:space="preserve">
<path fill="#FFFFFF" opacity="1.000000" stroke="none" 
	d="
M1014.000000,1081.000000 
	C676.000000,1081.000000 338.500000,1081.000000 1.000000,1081.000000 
	C1.000000,721.000000 1.000000,361.000000 1.000000,1.000000 
	C361.000000,1.000000 721.000000,1.000000 1081.000000,1.000000 
	C1081.000000,361.000000 1081.000000,721.000000 1081.000000,1081.000000 
	C1058.833374,1081.000000 1036.666626,1081.000000 1014.000000,1081.000000 
M432.080231,528.318420 
	C427.299164,534.511719 425.510376,541.660950 426.190430,549.276428 
	C426.348724,551.048706 428.736267,552.621948 430.098114,554.286804 
	C431.385468,552.987427 433.357941,551.898315 433.833221,550.349670 
	C435.331238,545.468994 436.621185,540.460876 437.263550,535.409485 
	C437.559265,533.083984 436.160950,530.543152 435.023651,527.693054 
	C435.009674,527.069946 434.773834,526.335632 435.020721,525.843323 
	C436.017731,523.854858 437.538513,522.042847 438.104645,519.958862 
	C438.412048,518.827271 437.188690,517.279785 436.655823,515.919922 
	C435.181122,516.640381 433.205719,516.984558 432.327484,518.153198 
	C429.888977,521.398071 431.013855,524.813293 432.080231,528.318420 
M692.742004,527.585327 
	C692.711365,527.033569 692.462402,526.362915 692.687134,525.950256 
	C693.748291,524.001587 695.315125,522.237122 695.937805,520.176208 
	C696.293030,519.000427 695.184021,517.382202 694.734314,515.963257 
	C693.152649,516.747437 690.356873,517.355896 690.213318,518.348206 
	C689.754028,521.521606 690.278137,524.837219 689.800903,528.425964 
	C685.224609,534.531860 683.385254,541.512573 684.048096,548.976685 
	C684.212463,550.827820 686.411682,552.498169 687.675476,554.251648 
	C689.083740,552.896362 691.261963,551.774658 691.756958,550.142395 
	C693.286926,545.097168 694.506836,539.898132 695.149902,534.673035 
	C695.407288,532.581909 693.845459,530.266785 692.742004,527.585327 
M560.995728,538.807495 
	C560.879578,543.258972 564.001709,541.444580 565.052185,540.306274 
	C568.585144,536.477783 572.414856,532.574524 574.586853,527.971313 
	C575.861755,525.269409 575.432678,519.955811 573.532837,518.066101 
	C571.586731,516.130371 566.538696,515.778137 563.497192,516.754456 
	C552.539673,520.271667 545.821228,528.295105 543.219971,539.422607 
	C542.626282,541.962463 543.202087,545.161804 544.255859,547.622437 
	C546.636780,553.182007 552.769714,555.448669 559.487366,553.884216 
	C569.315918,551.595276 574.608215,546.895935 574.818359,539.643616 
	C573.001038,540.673340 571.491638,541.585632 569.931335,542.400391 
	C566.991638,543.935547 564.135193,545.725708 561.040161,546.846130 
	C556.029175,548.659973 554.629822,547.508301 554.777222,542.279602 
	C554.972046,535.372498 557.461304,529.303284 561.743713,523.959351 
	C562.760681,522.690247 564.081482,521.664612 565.262512,520.526978 
	C565.896912,520.894409 566.531372,521.261780 567.165833,521.629150 
	C565.201477,527.149048 563.237183,532.668945 560.995728,538.807495 
M732.696045,536.211365 
	C724.513000,546.476807 725.077637,551.801147 733.280823,554.925903 
	C733.747925,558.786438 733.029846,562.868774 734.738647,564.771729 
	C737.771118,568.148499 742.288269,566.175842 745.021790,563.649719 
	C748.442749,560.488403 751.542603,556.593201 753.589722,552.429138 
	C756.179749,547.160400 756.260193,541.427490 755.471008,535.304993 
	C754.765442,529.830750 754.409546,527.742188 748.729980,527.767883 
	C742.242126,527.797241 737.489380,531.336853 732.696045,536.211365 
M423.123993,543.078186 
	C422.825623,540.417603 422.051453,537.706055 422.329498,535.107117 
	C422.881012,529.952209 421.615692,527.860291 416.489471,527.811890 
	C407.559235,527.727478 401.612305,532.903015 397.046753,539.836304 
	C391.746368,547.885376 393.164917,552.197205 401.997162,555.589539 
	C401.605103,556.321289 400.954254,557.004272 400.904602,557.728516 
	C400.756104,559.895020 399.972961,562.907288 401.057465,564.044373 
	C402.419586,565.472473 405.644012,566.272644 407.600464,565.714966 
	C410.494019,564.890320 414.013428,563.244812 415.426941,560.858948 
	C418.568787,555.556152 420.568909,549.576843 423.123993,543.078186 
M334.102722,553.512268 
	C338.459564,553.228577 343.267181,554.026917 347.080383,552.438354 
	C355.282990,549.021240 360.142212,538.163757 359.296783,528.109375 
	C358.925171,523.689575 358.090210,519.810120 352.127686,520.383728 
	C352.681335,518.802429 353.080414,517.662659 353.501190,516.460938 
	C340.992065,514.657043 329.432770,523.455078 325.715881,537.263916 
	C323.607056,545.098572 325.943237,549.969849 334.102722,553.512268 
M673.439026,553.268677 
	C676.186340,553.010986 678.933655,552.753357 680.698914,552.587830 
	C680.698914,546.875305 680.382812,542.444641 680.777100,538.078247 
	C681.296509,532.326904 680.730042,531.568848 674.734436,532.685791 
	C676.103149,530.942322 677.424072,529.467163 678.510132,527.835693 
	C681.345520,523.576050 681.231079,519.285278 678.343994,516.987732 
	C675.437622,514.674866 670.036987,515.152161 667.130371,518.783142 
	C660.241211,527.388916 655.980713,537.246948 655.188049,548.337952 
	C655.063660,550.078308 655.958435,552.819946 657.216309,553.460815 
	C658.396729,554.062195 660.902222,552.824402 662.433044,551.806763 
	C665.055786,550.063232 667.373169,547.860291 669.826782,545.843689 
	C671.035278,548.623840 671.935425,550.694702 673.439026,553.268677 
M521.283142,546.734985 
	C521.725281,544.814941 522.167419,542.894958 522.811462,540.098083 
	C518.871887,543.141357 515.923889,545.418640 512.635803,547.958679 
	C510.235229,540.794739 513.780212,526.883301 519.106323,523.408630 
	C517.169006,529.474915 515.231689,535.541260 513.210938,541.868896 
	C520.469421,539.197693 525.370178,531.981934 525.219421,523.670288 
	C525.174133,521.168823 523.894531,517.227905 522.190857,516.590271 
	C520.086609,515.802734 516.219543,516.989136 514.391663,518.693054 
	C507.946442,524.701294 503.995300,532.393921 501.898895,540.954468 
	C500.362427,547.228638 501.628357,551.026062 505.657471,553.135620 
	C509.862823,555.337463 514.548279,554.238464 518.684570,550.029663 
	C519.497070,549.202881 520.184509,548.253174 521.283142,546.734985 
M600.933105,530.357361 
	C601.340820,527.740662 602.296997,525.057617 601.990784,522.527283 
	C601.723267,520.316467 600.472961,517.053040 598.862000,516.476807 
	C596.904419,515.776611 593.439636,516.663940 591.798828,518.154602 
	C584.306152,524.961304 579.972351,533.718872 578.166321,543.630737 
	C577.468628,547.459534 578.483398,551.009705 582.265564,553.015564 
	C586.650452,555.341064 590.704712,554.332458 594.222168,551.179260 
	C597.251221,548.463867 600.189575,545.550476 598.595215,540.208740 
	C596.930359,541.976562 595.867798,543.552246 594.406189,544.534058 
	C592.867126,545.567932 590.946716,546.034302 589.192932,546.748596 
	C588.727539,545.000732 588.262207,543.252808 587.789734,541.478210 
	C595.816467,541.681641 598.047913,536.139282 600.933105,530.357361 
M469.580841,545.088928 
	C468.661530,548.886536 469.523438,551.997681 473.084351,554.027100 
	C476.562408,556.009277 479.476868,554.591248 482.212555,552.406433 
	C484.062073,550.929321 485.853088,549.379089 488.124481,547.482361 
	C488.565704,549.070068 488.815186,549.823853 488.982635,550.595459 
	C489.695007,553.878601 491.753113,554.996277 494.869568,554.102661 
	C497.600342,553.319641 499.569061,552.173401 498.836243,548.506897 
	C497.921265,543.929077 497.796875,539.199646 497.111542,534.568115 
	C496.135071,527.969177 493.229095,525.952332 486.724274,527.620117 
	C477.914246,529.878967 472.684540,535.965759 469.580841,545.088928 
M703.723511,554.556641 
	C707.023865,550.929688 710.324158,547.302734 713.682129,543.612427 
	C714.728516,546.893066 715.141479,550.000854 716.700745,552.346680 
	C717.539062,553.607849 720.376526,554.037231 722.249146,553.910828 
	C723.231934,553.844543 724.807007,551.803101 724.860352,550.598206 
	C725.078247,545.669556 724.961182,540.710022 724.642639,535.782837 
	C724.535645,534.128418 723.826965,531.555054 722.743835,531.153381 
	C721.242920,530.596924 718.854248,531.251831 717.342896,532.189514 
	C715.178162,533.532532 713.462402,535.599426 711.031189,537.839966 
	C711.031189,535.984131 711.237427,534.845825 710.987671,533.818359 
	C710.487061,531.759277 709.737183,529.760803 709.090271,527.737305 
	C707.083008,529.118103 704.038086,530.074219 703.266174,531.960571 
	C701.085693,537.288757 699.536316,542.934692 698.338684,548.582703 
	C697.656860,551.797913 698.363403,555.098938 703.723511,554.556641 
M453.285004,531.037109 
	C452.343781,529.878174 451.245758,527.666931 450.493896,527.778870 
	C448.921265,528.013245 446.673218,529.170044 446.211578,530.479797 
	C443.968048,536.845032 442.005585,543.335571 440.479889,549.906250 
	C440.163666,551.268188 441.789520,554.018860 443.138794,554.545715 
	C444.306763,555.001770 446.688477,553.557678 447.941040,552.342590 
	C450.721893,549.644714 453.131195,546.563904 455.816681,543.496704 
	C456.886932,546.881653 457.286011,549.972717 458.831848,552.303101 
	C459.672882,553.571045 462.465149,553.950806 464.370361,553.934082 
	C465.311951,553.925781 467.007538,552.137268 467.041321,551.110840 
	C467.214752,545.839233 467.032684,540.550720 466.831390,535.273560 
	C466.650757,530.538757 463.814362,529.080811 459.869873,531.862671 
	C457.482117,533.546631 455.497070,535.801575 452.838806,538.254211 
	C453.033813,535.666626 453.180756,533.717041 453.285004,531.037109 
M604.910095,540.465454 
	C603.835876,544.810120 604.080383,548.866699 608.138916,551.627625 
	C617.215149,557.801819 631.136719,551.917908 632.782349,541.089478 
	C633.503113,536.346802 633.216858,531.673462 627.387634,529.659607 
	C626.645630,529.403259 626.484558,527.465515 626.054443,526.306702 
	C616.463318,525.422424 609.560303,529.837219 604.910095,540.465454 
M646.677612,552.263306 
	C647.856628,551.224548 649.035645,550.185791 649.187500,550.052063 
	C647.768066,547.019897 645.930176,544.889832 646.005981,542.830200 
	C646.116455,539.827576 646.682495,535.642456 648.685974,534.146301 
	C653.597534,530.478333 654.168335,529.714844 649.588318,525.729797 
	C650.256714,523.935242 650.994324,522.088074 651.634338,520.207703 
	C652.765198,516.885071 651.281799,515.670410 648.206116,516.573425 
	C646.727051,517.007690 645.179871,518.084534 644.239746,519.311768 
	C641.683350,522.648804 639.407837,526.203796 637.086914,529.716003 
	C636.646118,530.383057 636.031067,531.612915 636.302490,531.969299 
	C639.513916,536.186279 636.182068,540.123535 635.848022,544.138245 
	C635.219910,551.689819 638.620422,554.647583 646.677612,552.263306 
M386.843292,527.236206 
	C382.095062,532.985779 380.279510,539.778625 380.064178,547.044312 
	C380.013000,548.771912 380.447632,550.733765 381.298645,552.222046 
	C383.021881,555.235718 386.299286,555.233643 387.266266,552.012329 
	C389.154724,545.721252 390.585480,539.243958 391.519684,532.745117 
	C391.799103,530.801331 389.799500,528.530029 388.703369,526.096375 
	C388.476624,526.251221 389.287415,526.005249 389.428040,525.551575 
	C390.343964,522.596924 391.114410,519.597229 391.932465,516.612244 
	C390.559662,516.501099 388.554962,515.758728 387.924927,516.389465 
	C385.384491,518.932861 383.830627,522.018188 385.915771,525.698792 
	C386.071655,525.973938 386.386383,526.159180 386.843292,527.236206 
M377.224396,528.525208 
	C375.483887,528.396179 373.383789,528.845337 372.070862,528.028809 
	C368.272308,525.666443 366.390778,528.258911 365.618713,530.812012 
	C363.805756,536.807556 362.496368,542.986511 361.496399,549.174194 
	C361.256897,550.656067 363.160919,553.911865 363.840729,553.847107 
	C365.882263,553.652832 368.214417,552.616821 369.642212,551.143005 
	C370.719025,550.031494 370.730072,547.759766 370.948242,545.971863 
	C371.341003,542.753174 371.533386,539.510010 371.809509,536.277100 
	C372.083099,536.271545 372.356659,536.265930 372.630249,536.260315 
	C373.002289,538.220276 373.374329,540.180237 373.942413,543.172852 
	C377.624023,538.369324 378.320984,534.014282 377.224396,528.525208 
z"/>
<path fill="#19BB85" opacity="1.000000" stroke="none" 
	d="
M561.134277,538.498169 
	C563.237183,532.668945 565.201477,527.149048 567.165833,521.629150 
	C566.531372,521.261780 565.896912,520.894409 565.262512,520.526978 
	C564.081482,521.664612 562.760681,522.690247 561.743713,523.959351 
	C557.461304,529.303284 554.972046,535.372498 554.777222,542.279602 
	C554.629822,547.508301 556.029175,548.659973 561.040161,546.846130 
	C564.135193,545.725708 566.991638,543.935547 569.931335,542.400391 
	C571.491638,541.585632 573.001038,540.673340 574.818359,539.643616 
	C574.608215,546.895935 569.315918,551.595276 559.487366,553.884216 
	C552.769714,555.448669 546.636780,553.182007 544.255859,547.622437 
	C543.202087,545.161804 542.626282,541.962463 543.219971,539.422607 
	C545.821228,528.295105 552.539673,520.271667 563.497192,516.754456 
	C566.538696,515.778137 571.586731,516.130371 573.532837,518.066101 
	C575.432678,519.955811 575.861755,525.269409 574.586853,527.971313 
	C572.414856,532.574524 568.585144,536.477783 565.052185,540.306274 
	C564.001709,541.444580 560.879578,543.258972 561.134277,538.498169 
z"/>
<path fill="#19BB85" opacity="1.000000" stroke="none" 
	d="
M732.926941,535.938110 
	C737.489380,531.336853 742.242126,527.797241 748.729980,527.767883 
	C754.409546,527.742188 754.765442,529.830750 755.471008,535.304993 
	C756.260193,541.427490 756.179749,547.160400 753.589722,552.429138 
	C751.542603,556.593201 748.442749,560.488403 745.021790,563.649719 
	C742.288269,566.175842 737.771118,568.148499 734.738647,564.771729 
	C733.029846,562.868774 733.747925,558.786438 733.280823,554.925903 
	C725.077637,551.801147 724.513000,546.476807 732.926941,535.938110 
M738.629517,542.210632 
	C738.532959,543.499695 738.436401,544.788818 738.309082,546.488770 
	C745.327454,543.202942 747.280823,539.476135 745.431030,531.140625 
	C743.241577,534.584290 741.052124,538.028015 738.629517,542.210632 
M741.170288,550.125977 
	C740.719421,550.533813 740.268494,550.941650 739.154175,551.949585 
	C740.927979,551.949585 741.857849,551.949585 742.592224,551.949585 
	C741.924866,555.292480 741.323486,558.304749 740.722107,561.317078 
	C741.267639,561.441223 741.813171,561.565430 742.358704,561.689575 
	C743.586548,557.363770 744.814392,553.037964 746.042297,548.712158 
	C745.626709,548.517151 745.211060,548.322144 744.795471,548.127136 
	C743.827881,548.635315 742.860229,549.143494 741.170288,550.125977 
M745.805481,547.596802 
	C745.612915,547.525024 745.420349,547.453308 745.227783,547.381531 
	C745.286377,547.580200 745.344910,547.778931 745.805481,547.596802 
z"/>
<path fill="#19BB85" opacity="1.000000" stroke="none" 
	d="
M423.079224,543.475769 
	C420.568909,549.576843 418.568787,555.556152 415.426941,560.858948 
	C414.013428,563.244812 410.494019,564.890320 407.600464,565.714966 
	C405.644012,566.272644 402.419586,565.472473 401.057465,564.044373 
	C399.972961,562.907288 400.756104,559.895020 400.904602,557.728516 
	C400.954254,557.004272 401.605103,556.321289 401.997162,555.589539 
	C393.164917,552.197205 391.746368,547.885376 397.046753,539.836304 
	C401.612305,532.903015 407.559235,527.727478 416.489471,527.811890 
	C421.615692,527.860291 422.881012,529.952209 422.329498,535.107117 
	C422.051453,537.706055 422.825623,540.417603 423.079224,543.475769 
M410.686066,548.341675 
	C409.361725,549.386414 408.037415,550.431152 406.109711,551.951843 
	C407.924683,551.951843 408.801758,551.951843 409.591400,551.951843 
	C408.978577,555.147583 408.391357,558.209717 407.804169,561.271851 
	C408.361206,561.390991 408.918274,561.510071 409.475342,561.629211 
	C410.534119,557.578735 411.592926,553.528259 412.888672,548.943420 
	C412.744965,548.392761 412.601257,547.842041 412.457550,547.291382 
	C412.089020,547.570068 411.720490,547.848755 410.686066,548.341675 
M411.565338,532.613342 
	C405.888062,539.304504 404.844421,541.866638 406.231384,546.633972 
	C408.417511,544.963501 411.241364,543.807190 412.299316,541.744995 
	C413.634247,539.142700 413.552979,535.804810 413.962891,532.768005 
	C413.980682,532.636353 412.801392,532.343201 411.565338,532.613342 
z"/>
<path fill="#17BB84" opacity="1.000000" stroke="none" 
	d="
M333.740631,553.376953 
	C325.943237,549.969849 323.607056,545.098572 325.715881,537.263916 
	C329.432770,523.455078 340.992065,514.657043 353.501190,516.460938 
	C353.080414,517.662659 352.681335,518.802429 352.127686,520.383728 
	C358.090210,519.810120 358.925171,523.689575 359.296783,528.109375 
	C360.142212,538.163757 355.282990,549.021240 347.080383,552.438354 
	C343.267181,554.026917 338.459564,553.228577 333.740631,553.376953 
M351.020020,535.690857 
	C350.377869,533.655945 350.072906,531.421814 349.015594,529.632141 
	C347.371368,526.849060 347.366119,524.746216 350.150177,522.834229 
	C350.872681,522.338074 351.372864,521.518188 352.396667,520.377258 
	C351.125183,520.179749 350.515289,519.922302 349.973328,520.024658 
	C338.083160,522.270081 333.339569,535.864563 337.309387,545.955872 
	C338.716858,549.533752 343.415771,550.550598 345.904144,547.394348 
	C348.326385,544.322021 349.389496,540.178162 351.020020,535.690857 
z"/>
<path fill="#19BB85" opacity="1.000000" stroke="none" 
	d="
M673.137329,553.017090 
	C671.935425,550.694702 671.035278,548.623840 669.826782,545.843689 
	C667.373169,547.860291 665.055786,550.063232 662.433044,551.806763 
	C660.902222,552.824402 658.396729,554.062195 657.216309,553.460815 
	C655.958435,552.819946 655.063660,550.078308 655.188049,548.337952 
	C655.980713,537.246948 660.241211,527.388916 667.130371,518.783142 
	C670.036987,515.152161 675.437622,514.674866 678.343994,516.987732 
	C681.231079,519.285278 681.345520,523.576050 678.510132,527.835693 
	C677.424072,529.467163 676.103149,530.942322 674.734436,532.685791 
	C680.730042,531.568848 681.296509,532.326904 680.777100,538.078247 
	C680.382812,542.444641 680.698914,546.875305 680.698914,552.587830 
	C678.933655,552.753357 676.186340,553.010986 673.137329,553.017090 
M672.280823,527.690063 
	C672.902466,525.008545 673.524109,522.327026 674.145691,519.645508 
	C673.511780,519.465149 672.877808,519.284790 672.243835,519.104431 
	C670.089722,525.824402 667.935547,532.544373 665.781372,539.264343 
	C666.170288,539.458191 666.559204,539.651978 666.948120,539.845825 
	C669.349060,537.777771 671.750061,535.709717 674.955322,532.948914 
	C672.725037,533.389648 671.559998,533.619873 669.758545,533.975891 
	C670.692505,531.699463 671.364258,530.062134 672.280823,527.690063 
z"/>
<path fill="#19BB85" opacity="1.000000" stroke="none" 
	d="
M521.106384,547.047607 
	C520.184509,548.253174 519.497070,549.202881 518.684570,550.029663 
	C514.548279,554.238464 509.862823,555.337463 505.657471,553.135620 
	C501.628357,551.026062 500.362427,547.228638 501.898895,540.954468 
	C503.995300,532.393921 507.946442,524.701294 514.391663,518.693054 
	C516.219543,516.989136 520.086609,515.802734 522.190857,516.590271 
	C523.894531,517.227905 525.174133,521.168823 525.219421,523.670288 
	C525.370178,531.981934 520.469421,539.197693 513.210938,541.868896 
	C515.231689,535.541260 517.169006,529.474915 519.106323,523.408630 
	C513.780212,526.883301 510.235229,540.794739 512.635803,547.958679 
	C515.923889,545.418640 518.871887,543.141357 522.811462,540.098083 
	C522.167419,542.894958 521.725281,544.814941 521.106384,547.047607 
z"/>
<path fill="#19BB85" opacity="1.000000" stroke="none" 
	d="
M600.812012,530.720581 
	C598.047913,536.139282 595.816467,541.681641 587.789734,541.478210 
	C588.262207,543.252808 588.727539,545.000732 589.192932,546.748596 
	C590.946716,546.034302 592.867126,545.567932 594.406189,544.534058 
	C595.867798,543.552246 596.930359,541.976562 598.595215,540.208740 
	C600.189575,545.550476 597.251221,548.463867 594.222168,551.179260 
	C590.704712,554.332458 586.650452,555.341064 582.265564,553.015564 
	C578.483398,551.009705 577.468628,547.459534 578.166321,543.630737 
	C579.972351,533.718872 584.306152,524.961304 591.798828,518.154602 
	C593.439636,516.663940 596.904419,515.776611 598.862000,516.476807 
	C600.472961,517.053040 601.723267,520.316467 601.990784,522.527283 
	C602.296997,525.057617 601.340820,527.740662 600.812012,530.720581 
M592.102417,526.795959 
	C590.827698,531.114929 589.553040,535.433960 588.278320,539.752930 
	C588.958618,539.957703 589.638977,540.162537 590.319336,540.367310 
	C592.187500,534.708618 594.055725,529.049866 595.923950,523.391174 
	C595.395752,523.187927 594.867554,522.984680 594.339355,522.781433 
	C593.690979,523.865234 593.042603,524.949036 592.102417,526.795959 
z"/>
<path fill="#19BB85" opacity="1.000000" stroke="none" 
	d="
M469.694397,544.711609 
	C472.684540,535.965759 477.914246,529.878967 486.724274,527.620117 
	C493.229095,525.952332 496.135071,527.969177 497.111542,534.568115 
	C497.796875,539.199646 497.921265,543.929077 498.836243,548.506897 
	C499.569061,552.173401 497.600342,553.319641 494.869568,554.102661 
	C491.753113,554.996277 489.695007,553.878601 488.982635,550.595459 
	C488.815186,549.823853 488.565704,549.070068 488.124481,547.482361 
	C485.853088,549.379089 484.062073,550.929321 482.212555,552.406433 
	C479.476868,554.591248 476.562408,556.009277 473.084351,554.027100 
	C469.523438,551.997681 468.661530,548.886536 469.694397,544.711609 
M485.967102,531.501465 
	C479.522339,538.064636 478.262604,542.498047 482.071136,546.983643 
	C484.494751,544.900818 486.917053,542.819031 489.629120,540.488281 
	C488.092834,540.158997 487.172272,539.961670 487.267700,539.982117 
	C487.045013,536.768188 486.857025,534.055603 485.967102,531.501465 
z"/>
<path fill="#17BB84" opacity="1.000000" stroke="none" 
	d="
M703.378540,554.705811 
	C698.363403,555.098938 697.656860,551.797913 698.338684,548.582703 
	C699.536316,542.934692 701.085693,537.288757 703.266174,531.960571 
	C704.038086,530.074219 707.083008,529.118103 709.090210,527.737305 
	C709.737183,529.760803 710.487061,531.759277 710.987671,533.818359 
	C711.237427,534.845825 711.031189,535.984131 711.031189,537.839966 
	C713.462402,535.599426 715.178162,533.532532 717.342896,532.189514 
	C718.854248,531.251831 721.242920,530.596924 722.743835,531.153381 
	C723.826965,531.555054 724.535645,534.128418 724.642639,535.782837 
	C724.961182,540.710022 725.078247,545.669556 724.860352,550.598206 
	C724.807007,551.803101 723.231934,553.844543 722.249146,553.910828 
	C720.376526,554.037231 717.539062,553.607849 716.700745,552.346680 
	C715.141479,550.000854 714.728516,546.893066 713.682129,543.612427 
	C710.324158,547.302734 707.023865,550.929688 703.378540,554.705811 
z"/>
<path fill="#17BB84" opacity="1.000000" stroke="none" 
	d="
M453.306335,531.402283 
	C453.180756,533.717041 453.033813,535.666626 452.838806,538.254211 
	C455.497070,535.801575 457.482117,533.546631 459.869873,531.862671 
	C463.814362,529.080811 466.650757,530.538757 466.831390,535.273560 
	C467.032684,540.550720 467.214752,545.839233 467.041321,551.110840 
	C467.007538,552.137268 465.311951,553.925781 464.370361,553.934082 
	C462.465149,553.950806 459.672882,553.571045 458.831848,552.303101 
	C457.286011,549.972717 456.886932,546.881653 455.816681,543.496704 
	C453.131195,546.563904 450.721893,549.644714 447.941040,552.342590 
	C446.688477,553.557678 444.306763,555.001770 443.138794,554.545715 
	C441.789520,554.018860 440.163666,551.268188 440.479889,549.906250 
	C442.005585,543.335571 443.968048,536.845032 446.211578,530.479797 
	C446.673218,529.170044 448.921265,528.013245 450.493896,527.778870 
	C451.245758,527.666931 452.343781,529.878174 453.306335,531.402283 
z"/>
<path fill="#19BB85" opacity="1.000000" stroke="none" 
	d="
M605.002991,540.088074 
	C609.560303,529.837219 616.463318,525.422424 626.054382,526.306763 
	C626.484558,527.465515 626.645630,529.403259 627.387634,529.659607 
	C633.216858,531.673462 633.503113,536.346802 632.782349,541.089478 
	C631.136719,551.917908 617.215149,557.801819 608.138916,551.627625 
	C604.080383,548.866699 603.835876,544.810120 605.002991,540.088074 
M614.534058,540.647461 
	C614.645264,542.119873 614.271301,543.912537 614.981995,544.989319 
	C616.033630,546.582703 617.742432,548.485474 619.384644,548.712280 
	C620.712219,548.895508 623.404053,546.989319 623.642822,545.674438 
	C624.168518,542.780090 623.969055,539.555664 623.207947,536.694092 
	C622.682800,534.719849 620.721191,533.127747 618.596008,530.288818 
	C617.073914,533.960205 615.865845,536.874207 614.534058,540.647461 
M626.046753,529.131714 
	C623.985901,529.449280 621.925049,529.766907 618.929260,530.228577 
	C620.296448,531.468506 620.443665,531.674744 620.509949,531.651428 
	C622.176575,531.063843 623.834717,530.452026 626.046753,529.131714 
z"/>
<path fill="#17BB84" opacity="1.000000" stroke="none" 
	d="
M646.361084,552.448730 
	C638.620422,554.647583 635.219910,551.689819 635.848022,544.138245 
	C636.182068,540.123535 639.513916,536.186279 636.302490,531.969299 
	C636.031067,531.612915 636.646118,530.383057 637.086914,529.716003 
	C639.407837,526.203796 641.683350,522.648804 644.239746,519.311768 
	C645.179871,518.084534 646.727051,517.007690 648.206116,516.573425 
	C651.281799,515.670410 652.765198,516.885071 651.634338,520.207703 
	C650.994324,522.088074 650.256714,523.935242 649.588318,525.729797 
	C654.168335,529.714844 653.597534,530.478333 648.685974,534.146301 
	C646.682495,535.642456 646.116455,539.827576 646.005981,542.830200 
	C645.930176,544.889832 647.768066,547.019897 649.187500,550.052063 
	C649.035645,550.185791 647.856628,551.224548 646.361084,552.448730 
z"/>
<path fill="#19BB85" opacity="1.000000" stroke="none" 
	d="
M386.735291,526.811157 
	C386.386383,526.159180 386.071655,525.973938 385.915771,525.698792 
	C383.830627,522.018188 385.384491,518.932861 387.924927,516.389465 
	C388.554962,515.758728 390.559662,516.501099 391.932465,516.612244 
	C391.114410,519.597229 390.343964,522.596924 389.428040,525.551575 
	C389.287415,526.005249 388.476624,526.251221 388.703369,526.096375 
	C389.799500,528.530029 391.799103,530.801331 391.519684,532.745117 
	C390.585480,539.243958 389.154724,545.721252 387.266266,552.012329 
	C386.299286,555.233643 383.021881,555.235718 381.298645,552.222046 
	C380.447632,550.733765 380.013000,548.771912 380.064178,547.044312 
	C380.279510,539.778625 382.095062,532.985779 386.735291,526.811157 
z"/>
<path fill="#19BB85" opacity="1.000000" stroke="none" 
	d="
M377.384094,528.902344 
	C378.320984,534.014282 377.624023,538.369324 373.942413,543.172852 
	C373.374329,540.180237 373.002289,538.220276 372.630249,536.260315 
	C372.356659,536.265930 372.083099,536.271545 371.809509,536.277100 
	C371.533386,539.510010 371.341003,542.753174 370.948242,545.971863 
	C370.730072,547.759766 370.719025,550.031494 369.642212,551.143005 
	C368.214417,552.616821 365.882263,553.652832 363.840729,553.847107 
	C363.160919,553.911865 361.256897,550.656067 361.496399,549.174194 
	C362.496368,542.986511 363.805756,536.807556 365.618713,530.812012 
	C366.390778,528.258911 368.272308,525.666443 372.070862,528.028809 
	C373.383789,528.845337 375.483887,528.396179 377.384094,528.902344 
z"/>
<path fill="#17BB84" opacity="1.000000" stroke="none" 
	d="
M693.111694,528.053650 
	C693.845459,530.266785 695.407288,532.581909 695.149902,534.673035 
	C694.506836,539.898132 693.286926,545.097168 691.756958,550.142395 
	C691.261963,551.774658 689.083740,552.896362 687.675476,554.251648 
	C686.411682,552.498169 684.212463,550.827820 684.048096,548.976685 
	C683.385254,541.512573 685.224609,534.531860 690.382324,528.236389 
	C691.679688,528.049072 692.395691,528.051392 693.111694,528.053650 
z"/>
<path fill="#17BB84" opacity="1.000000" stroke="none" 
	d="
M435.530762,528.099915 
	C436.160950,530.543152 437.559265,533.083984 437.263550,535.409485 
	C436.621185,540.460876 435.331238,545.468994 433.833221,550.349670 
	C433.357941,551.898315 431.385468,552.987427 430.098083,554.286743 
	C428.736267,552.621948 426.348724,551.048706 426.190430,549.276428 
	C425.510376,541.660950 427.299164,534.511719 432.702942,528.168701 
	C434.060669,528.045898 434.795715,528.072876 435.530762,528.099915 
z"/>
<path fill="#19BB85" opacity="1.000000" stroke="none" 
	d="
M692.926880,527.819458 
	C692.395691,528.051392 691.679688,528.049072 690.693115,528.072388 
	C690.278137,524.837219 689.754028,521.521606 690.213318,518.348206 
	C690.356873,517.355896 693.152649,516.747437 694.734314,515.963257 
	C695.184021,517.382202 696.293030,519.000427 695.937805,520.176208 
	C695.315125,522.237122 693.748291,524.001587 692.687134,525.950256 
	C692.462402,526.362915 692.711365,527.033569 692.926880,527.819458 
z"/>
<path fill="#19BB85" opacity="1.000000" stroke="none" 
	d="
M435.277222,527.896484 
	C434.795715,528.072876 434.060669,528.045898 433.055603,528.032959 
	C431.013855,524.813293 429.888977,521.398071 432.327484,518.153198 
	C433.205719,516.984558 435.181122,516.640381 436.655823,515.919922 
	C437.188690,517.279785 438.412048,518.827271 438.104645,519.958862 
	C437.538513,522.042847 436.017731,523.854858 435.020721,525.843323 
	C434.773834,526.335632 435.009674,527.069946 435.277222,527.896484 
z"/>
<path fill="#FFFFFF" opacity="1.000000" stroke="none" 
	d="
M738.746094,541.841187 
	C741.052124,538.028015 743.241577,534.584290 745.431030,531.140625 
	C747.280823,539.476135 745.327454,543.202942 738.309082,546.488770 
	C738.436401,544.788818 738.532959,543.499695 738.746094,541.841187 
z"/>
<path fill="#FFFFFF" opacity="1.000000" stroke="none" 
	d="
M741.531433,549.888794 
	C742.860229,549.143494 743.827881,548.635315 744.795471,548.127136 
	C745.211060,548.322144 745.626709,548.517151 746.042297,548.712158 
	C744.814392,553.037964 743.586548,557.363770 742.358704,561.689575 
	C741.813171,561.565430 741.267639,561.441223 740.722107,561.317078 
	C741.323486,558.304749 741.924866,555.292480 742.592224,551.949585 
	C741.857849,551.949585 740.927979,551.949585 739.154175,551.949585 
	C740.268494,550.941650 740.719421,550.533813 741.531433,549.888794 
z"/>
<path fill="#FFFFFF" opacity="1.000000" stroke="none" 
	d="
M745.604492,547.787231 
	C745.344910,547.778931 745.286377,547.580200 745.227783,547.381531 
	C745.420349,547.453308 745.612915,547.525024 745.604492,547.787231 
z"/>
<path fill="#FFFFFF" opacity="1.000000" stroke="none" 
	d="
M411.872528,532.369324 
	C412.801392,532.343201 413.980682,532.636353 413.962891,532.768005 
	C413.552979,535.804810 413.634247,539.142700 412.299316,541.744995 
	C411.241364,543.807190 408.417511,544.963501 406.231384,546.633972 
	C404.844421,541.866638 405.888062,539.304504 411.872528,532.369324 
z"/>
<path fill="#FFFFFF" opacity="1.000000" stroke="none" 
	d="
M412.651672,549.477783 
	C411.592926,553.528259 410.534119,557.578735 409.475342,561.629211 
	C408.918274,561.510071 408.361206,561.390991 407.804169,561.271851 
	C408.391357,558.209717 408.978577,555.147583 409.591400,551.951843 
	C408.801758,551.951843 407.924683,551.951843 406.109711,551.951843 
	C408.037415,550.431152 409.361725,549.386414 411.318420,548.596680 
	C412.184418,549.060486 412.418060,549.269165 412.651672,549.477783 
z"/>
<path fill="#FFFFFF" opacity="1.000000" stroke="none" 
	d="
M411.651367,548.489624 
	C411.720490,547.848755 412.089020,547.570068 412.457550,547.291382 
	C412.601257,547.842041 412.744965,548.392761 412.770172,549.210571 
	C412.418060,549.269165 412.184418,549.060486 411.651367,548.489624 
z"/>
<path fill="#FFFFFF" opacity="1.000000" stroke="none" 
	d="
M351.034668,536.097778 
	C349.389496,540.178162 348.326385,544.322021 345.904144,547.394348 
	C343.415771,550.550598 338.716858,549.533752 337.309387,545.955872 
	C333.339569,535.864563 338.083160,522.270081 349.973328,520.024658 
	C350.515289,519.922302 351.125183,520.179749 352.396667,520.377258 
	C351.372864,521.518188 350.872681,522.338074 350.150177,522.834229 
	C347.366119,524.746216 347.371368,526.849060 349.015594,529.632141 
	C350.072906,531.421814 350.377869,533.655945 351.034668,536.097778 
z"/>
<path fill="#FFFFFF" opacity="1.000000" stroke="none" 
	d="
M672.158447,528.057434 
	C671.364258,530.062134 670.692505,531.699463 669.758545,533.975891 
	C671.559998,533.619873 672.725037,533.389648 674.955322,532.948914 
	C671.750061,535.709717 669.349060,537.777771 666.948120,539.845825 
	C666.559204,539.651978 666.170288,539.458191 665.781372,539.264343 
	C667.935547,532.544373 670.089722,525.824402 672.243835,519.104431 
	C672.877808,519.284790 673.511780,519.465149 674.145691,519.645508 
	C673.524109,522.327026 672.902466,525.008545 672.158447,528.057434 
z"/>
<path fill="#FFFFFF" opacity="1.000000" stroke="none" 
	d="
M592.248291,526.414368 
	C593.042603,524.949036 593.690979,523.865234 594.339355,522.781433 
	C594.867554,522.984680 595.395752,523.187927 595.923950,523.391174 
	C594.055725,529.049866 592.187500,534.708618 590.319336,540.367310 
	C589.638977,540.162537 588.958618,539.957703 588.278320,539.752930 
	C589.553040,535.433960 590.827698,531.114929 592.248291,526.414368 
z"/>
<path fill="#FFFFFF" opacity="1.000000" stroke="none" 
	d="
M486.318085,531.422241 
	C486.857025,534.055603 487.045013,536.768188 487.267700,539.982117 
	C487.172272,539.961670 488.092834,540.158997 489.629120,540.488281 
	C486.917053,542.819031 484.494751,544.900818 482.071136,546.983643 
	C478.262604,542.498047 479.522339,538.064636 486.318085,531.422241 
z"/>
<path fill="#FFFFFF" opacity="1.000000" stroke="none" 
	d="
M614.595947,540.217773 
	C615.865845,536.874207 617.073914,533.960205 618.596008,530.288818 
	C620.721191,533.127747 622.682800,534.719849 623.207947,536.694092 
	C623.969055,539.555664 624.168518,542.780090 623.642822,545.674438 
	C623.404053,546.989319 620.712219,548.895508 619.384644,548.712280 
	C617.742432,548.485474 616.033630,546.582703 614.981995,544.989319 
	C614.271301,543.912537 614.645264,542.119873 614.595947,540.217773 
z"/>
<path fill="#FFFFFF" opacity="1.000000" stroke="none" 
	d="
M625.770508,529.488159 
	C623.834717,530.452026 622.176575,531.063843 620.509949,531.651428 
	C620.443665,531.674744 620.296448,531.468506 618.929260,530.228577 
	C621.925049,529.766907 623.985901,529.449280 625.770508,529.488159 
z"/>
</svg>